<?xml version="1.0" encoding="utf-8"?>
<!-- Generator: Adobe Illustrator 23.0.2, SVG Export Plug-In . SVG Version: 6.00 Build 0)  -->
<svg version="1.1" id="Capa_1" xmlns="http://www.w3.org/2000/svg" xmlns:xlink="http://www.w3.org/1999/xlink" x="0px" y="0px"
	 viewBox="0 0 512 512" style="enable-background:new 0 0 512 512;" xml:space="preserve">
<style type="text/css">
	.st0{fill:#1FA03A;}
	.st1{fill:#FFDBA9;}
	.st2{fill:#218732;}
	.st3{fill:#FFC473;}
</style>
<path class="st0" d="M433.5,177.5c0,40-28.1,106-83.5,196.1c-40.5,65.9-81.6,121.5-82,122L256,512l-12.1-16.3
	c-0.4-0.6-41.5-56.2-82-122c-55.4-90.1-83.5-156.1-83.5-196.1C78.5,79.6,158.1,0,256,0S433.5,79.6,433.5,177.5z"/>
<path class="st1" d="M357.5,174.8c0,56-45.5,101.5-101.5,101.5s-101.5-45.5-101.5-101.5c0-56,45.5-101.5,101.5-101.5
	S357.5,118.8,357.5,174.8z"/>
<path class="st2" d="M433.5,177.5c0,40-28.1,106-83.5,196.1c-40.5,65.9-81.6,121.5-82,122L256,512V0C353.9,0,433.5,79.6,433.5,177.5
	z"/>
<path class="st3" d="M357.5,174.8c0,56-45.5,101.5-101.5,101.5v-203C312,73.3,357.5,118.8,357.5,174.8z"/>
</svg>
