<?xml version="1.0" encoding="utf-8"?>
<!-- Generator: Adobe Illustrator 23.0.2, SVG Export Plug-In . SVG Version: 6.00 Build 0)  -->
<svg version="1.1" id="Capa_1" xmlns="http://www.w3.org/2000/svg" xmlns:xlink="http://www.w3.org/1999/xlink" x="0px" y="0px"
	 viewBox="0 0 512 512" style="enable-background:new 0 0 512 512;" xml:space="preserve">
<style type="text/css">
	.st0{fill:#252D33;}
	.st1{fill:#2196F3;}
	.st2{fill:#FAFAFA;}
</style>
<ellipse class="st0" cx="254" cy="415.5" rx="84.1" ry="54.1"/>
<path class="st1" d="M256,3c-84.4,0-153,69-153,153.8c0,106.6,138,246.6,143.9,252.5c2.6,2.5,5.8,3.7,9,3.7c3.2,0,6.5-1.3,9-3.7
	c5.9-5.9,143.9-145.9,143.9-252.5C409,72,340.4,3,256,3z"/>
<path class="st2" d="M334.5,133.9l-69.7-51.3c-5.1-3.7-12.3-3.7-17.4,0l-69.7,51.3c-4.7,3.4-6.4,9.1-4.4,14.3
	c2,5.2,7.2,8.6,13.2,8.6h14v64.1c0,7.1,6.2,12.8,14,12.8H298c7.7,0,14-5.7,14-12.8v-64.1h14c5.9,0,11.2-3.4,13.2-8.6
	C340.9,143.1,339.2,137.3,334.5,133.9z"/>
</svg>
