<?xml version="1.0" encoding="utf-8"?>
<!-- Generator: Adobe Illustrator 23.0.2, SVG Export Plug-In . SVG Version: 6.00 Build 0)  -->
<svg version="1.1" id="Layer_1" xmlns="http://www.w3.org/2000/svg" xmlns:xlink="http://www.w3.org/1999/xlink" x="0px" y="0px"
	 viewBox="0 0 512 512" style="enable-background:new 0 0 512 512;" xml:space="preserve">
<style type="text/css">
	.st0{fill:#626664;}
</style>
<g>
	<path class="st0" d="M490.7,0h-347c-3.9,0-7,3.1-7,7v73.5H21.2c-3.9,0-7,3.1-7,7v356.2c0,37.7,30.6,68.2,68.3,68.3h347
		c37.7,0,68.2-30.6,68.2-68.2V7C497.7,3.1,494.6,0,490.7,0z M28.2,443.7V94.5h108.5v349.2c-0.3,30-24.8,54-54.7,53.8
		C52.4,497.3,28.5,473.3,28.2,443.7z M483.7,443.7c0,30-24.3,54.2-54.2,54.3H123.9c16.9-12.9,26.8-33,26.9-54.2V14h333V443.7z"/>
	<path class="st0" d="M256.9,126.4h47.4c3.9,0,7-3.1,7-7s-3.1-7-7-7h-40.4V90.2h40.4c3.9,0,7-3.1,7-7s-3.1-7-7-7h-40.4V54h40.4
		c3.9,0,7-3.1,7-7s-3.1-7-7-7h-47.4c-3.9,0-7,3.1-7,7l0,0v72.4C250,123.3,253.1,126.4,256.9,126.4z"/>
	<path class="st0" d="M183.7,126.4c3.9,0,7-3.1,7-7c0,0,0,0,0,0V70.4l34.6,52.8c2.1,3.2,6.5,4.1,9.7,2c2-1.3,3.2-3.5,3.2-5.9V47
		c0-3.9-3.1-7-7-7s-7,3.1-7,7v48.9l-34.6-52.8c-2.1-3.2-6.5-4.1-9.7-2c-2,1.3-3.2,3.5-3.2,5.9v72.4
		C176.8,123.2,179.9,126.4,183.7,126.4z"/>
	<path class="st0" d="M328.1,126.1c3,0.9,6.2-0.3,7.9-2.9l17.9-27.3l17.8,27.3c2.1,3.2,6.5,4.1,9.7,2c2-1.3,3.2-3.5,3.2-5.9V47
		c0-3.9-3.1-7-7-7s-7,3.1-7,7v48.9l-10.9-16.6c-2.1-3.2-6.5-4.1-9.7-2c-0.8,0.5-1.5,1.2-2,2l-10.9,16.6V47c0-3.9-3.1-7-7-7
		s-7,3.1-7,7v72.4C323.1,122.5,325.2,125.2,328.1,126.1z"/>
	<path class="st0" d="M434.7,112.4h-31.4c-3.9,0-7,3.1-7,7s3.1,7,7,7l0,0h31.4c12.7,0,23-10.3,23-23v-4.2c0-12.7-10.3-23-23-23
		h-15.4c-5,0-9-4-9-9V63c0-5,4-9,9-9h31.4c3.9,0,7-3.1,7-7s-3.1-7-7-7h-31.4c-12.7,0-23,10.3-23,23v4.2c0,12.7,10.3,23,23,23h15.4
		c5,0,9,4,9,9v4.2C443.7,108.3,439.7,112.4,434.7,112.4z"/>
	<path class="st0" d="M183.7,241h267c3.9,0,7-3.1,7-7c0,0,0,0,0,0v-74.6c0-3.9-3.1-7-7-7c0,0,0,0,0,0h-267c-3.9,0-7,3.1-7,7V234
		C176.7,237.9,179.9,241,183.7,241L183.7,241z M190.7,166.4h253V227h-253V166.4z"/>
	<path class="st0" d="M216.2,267c-3.9,0-7,3.1-7,7s3.1,7,7,7h202c3.9,0,7-3.1,7-7s-3.1-7-7-7H216.2z"/>
	<path class="st0" d="M183.7,328.8h267c3.9,0,7-3.1,7-7s-3.1-7-7-7h-267c-3.9,0-7,3.1-7,7S179.9,328.8,183.7,328.8z"/>
	<path class="st0" d="M216.2,362.5c-3.9,0-7,3.1-7,7s3.1,7,7,7h202c3.9,0,7-3.1,7-7s-3.1-7-7-7H216.2z"/>
	<path class="st0" d="M183.7,424.3h267c3.9,0,7-3.1,7-7s-3.1-7-7-7h-267c-3.9,0-7,3.1-7,7S179.9,424.3,183.7,424.3z"/>
	<path class="st0" d="M418.2,458h-202c-3.9,0-7,3.1-7,7s3.1,7,7,7h202c3.9,0,7-3.1,7-7S422.1,458,418.2,458z"/>
</g>
</svg>
